<?xml version="1.0" standalone="no"?><!DOCTYPE svg PUBLIC "-//W3C//DTD SVG 1.1//EN" "http://www.w3.org/Graphics/SVG/1.1/DTD/svg11.dtd"><svg t="1770870953931" class="icon" viewBox="0 0 1024 1024" version="1.1" xmlns="http://www.w3.org/2000/svg" p-id="55044" xmlns:xlink="http://www.w3.org/1999/xlink" width="128" height="128"><path d="M947.5 380L815 174.8c-17.9-27.7-59.5-50.3-92.4-50.3H300.4c-33 0-74.5 22.6-92.4 50.3L75.5 380c-17.8 27.7-14 70 8.6 94l386.4 411c10.6 11.5 25.4 18 41 18 15.6 0 30.5-6.5 41-18l386.4-411c22.7-24.1 26.5-66.4 8.6-94z m-276.4-9.1L560.4 622.3c-12.4 28.1-34.4 51.1-48.9 51.1s-36.4-23-48.9-51.1L351.9 370.9c-12.4-28.1-3.5-51.1 19.8-51.1s52.3 23.1 64.5 51.3L490.4 497c12.2 28.2 31.9 28.2 43.8-0.2l53-125.6c12-28.3 40.8-51.5 64.1-51.5 23.3 0 32.2 23 19.8 51.2z" fill="#FFC600" p-id="55045"></path></svg>